<svg xmlns="http://www.w3.org/2000/svg" viewBox="464 -464 1440 1440">
<path id="door" d="M1246 292V122c0-13-8-57-39-83a35 35 0 00-45 0c-30 26-38 70-39 83v170c-5 0-8 4-8 8v11h140v-11c0-4-4-8-9-8zm-118-169c0-13 8-56 37-80 12-10 28-10 40 0 29 25 37 69 37 80v169h-4V123a130 130 0 00-32-74l-3-3h-1c-10-9-24-9-34 0-28 23-36 64-36 77v169h-4V123zm92-10h-3l-6 6h-10l-2-1V99c0-1 0-1 0 0l-1 18-2 2h-3l-6-6h-3l-6 6h-1l-10 1-1-1v-10h-1v9l-2 2h-3l-1-1-6-6h-3l-6 6-2 1h-3v3l1 1h3l1 1 6 6h3l6-6 1-1h2l3 2 1 6c0 1 0 1 0 0v-6l1-2h10l1 1 6 6h3l6-6 2-1c2 0 3 1 3 3l1 26v-27l2-2h8l2 1 6 6h3l6-6 1-1h4v120h-4l-1-1-6-6h-3l-6 6-1 1h-10l-1-2v-22l-1 22-1 1h-3-1l-6-6h-3l-6 6h-12l-1-1v-8l-1 8-1 1h-3-1l-6-6h-3l-6 6h-5v5h5l6 7h3l6-7h2c2 0 3 1 4 3v9h1v-10l2-2h8l2 1 6 6h3l6-6 1-1h2l2 2 1 20v-21l2-1h9l1 1 6 6h2l7-6 1-1h4v39c0 1-1 2-3 2l-90 3c-2 0-3-2-3-3V124v-5c2-13 9-46 31-68l4-3a23 23 0 0130 1c24 21 30 57 31 70h-4-1l-6-6zm3 10l-3 3h-3l-3-3v-3l3-3h3l3 3v3zm-33 0l-3 3h-2l-4-3v-3l4-3h2l3 3v3zm-34 0l-3 3h-3l-3-3v-3l3-3h3l3 3v3zm67 124l-3 3h-3l-3-3v-3l3-3h3l3 3v3zm-33 0l-3 3h-3l-3-3v-3l3-3h3l3 3v3zm-34 0l-3 3h-3l-3-3v-3l3-3h3l3 3v3zm95 60h-132v-7c0-2 2-4 4-4h123c3 0 5 2 5 4v7zm-35-108c0 2 1 4 3 4 3 0 4-2 4-4l-1-4 1-5c1-2-1-4-4-4-2 0-4 2-4 4 0 1 2 4 1 5v4zM1253 108c0-2 13-9 12-6 1-3-4-3-5-5-2-4 0 0-1-7h-8c-3 1-2 6 0 7-2 1-6 4-5 6 10 2 5 6 7 5zM1247 76c-1-2-6-1-2-5 2-2 5-2 7-1-1-2 2-6 4-7-2 1 9 7 9 7 1 2-4 4-4 5-1 2 4 7 0 9-3 2-5-4-7-4-1-1-5 3-7 2v-6c-1-2 1 2 0 0zM1253 59c1-2-6 8-4 7 2 0-9-5-9-3l2-4c2-2 2-4 0-6 2-4 11 6 11 6 0 2 1-1 0 0zM1266 109h2v3c1 1 2-2 3-2l5 1c-2 1-3-7-2-7h-3l-1-1h-2c-1 1 0 3 1 4l-3 2c0 1 0-1 0 0s0-1 0 0 0-1 0 0zM1287 112c-2 0 0 1 0 2l-6-1v-2c0-1 3-7 5-6l4 7h-3zM1275 88c-9 1-10-17-5-17-2 1 12 8 12 6l-5 7c2 1 4 3 4 5-2 4-5-1-6-1-2 0 0 0 0 0-5 1 0 0 0 0z"/><path d="M1280 96c0-1-3-2 0-4h6c0-2 1-4 3-5 1-1 5 4 5 5 2 4-1 2-3 4 0 2 2 8 0 10-2 1-6-6-7-7-2 0-3 5-5 3-2-1 1-5 1-6s0 1 0 0 0 1 0 0zM1266 95c-4 1 0-4 1-5 3-1 5 2 9 2-1 3-2 2-4 4-1 1 2 3 0 4-2 2-7-2-6-5-1 1-1 1 0 0-1 0 0 1 0 0-1 0 0 1 0 0zM1263 62c1-1 8 6 6 7l-3-1-2-1-2-2c-1-1-1-3 1-3 1 0-2 0 0 0zM1247 85c-2 0-4-2-5-4l1 5c2 5 8 3 4-1-1-1 4 4 0 0zM1236 60c4-2-2-8-3-9l-3-3h-1l2 8 2 3 3 1c1 0 0 1 0 0zM1294 115l2-2 3 1 9 2v1l-2 2-2 1c-1 0-6 1-9-2-1-1-2-2-1-3s-1 1 0 0zM1300 108c-1 3 2 3 1 3 0 1-8-1-7-6 1-3 2-4 4-2 0 0 2 2 2 5-1 3 0-3 0 0z"/><g><path d="M1113 160h-20c2-1 9 0 9 4l1 6v-7l2-2h8v-1c-1 0 0 0 0 0zM1096 215l-6-1-1-3v3c0 2-21 1-24 1l-2-2-1-5v6l-1 1h-5 40zM1112 239c-2-1-2-3-2-5l-2 4-44 1 14 1 1 1 1 10v-9c0-1 1-2 3-2 12 0 24 1 36-1h-7zM1097 266c0-1 1-2 3-2l19-1h-29c5 1 7 4 7 9v-6z"/></g><g><path d="M1294 184l-20-1-1-1v-7l2-3h5l-25-1v1h-1v1h14c2 0 3 1 3 3l1 20v-8c0-2 2-4 4-4h18zM1261 228l2-2 30-1h-34v2l1 2v7l1-8zM1256 251l-3 1h-1l1 1h3l40-1-40-1zM1263 198l20-1h12l2 2v9l1-10 7-1h-22l-21-1-2 1 3 1zM1260 274h-5v1h21v-1h-16z"/></g><g><path d="M1082 93l2 2c1 2-4 6-3 8 1 1 4-2 5-1 4 2 1 12 7 8 2-1 0-6 2-7 2-2 5 0 6-2v-9c-1-4-8 0-9 2-2-3-9-4-10-1 0 1 0-2 0 0z"/><path d="M1071 104v-2c3-3 6 3 7 5 1-1 10-1 8 3-4 1-1 5-4 7l-5-2c-3 1-4 6-8 6-2-3 2-5 2-7-1-3-4-3-5-5s5-4 5-5c1-1 0 0 0 0zM1061 120c1-1 5 0 6 2l1 4 5-3 5 3c-4 4 2 6-1 9h-6c-1 0-3 10-7 8-2-1 2-9 0-11-2-3-6 1-7-1l4-11c1-1-1 1 0 0s-1 1 0 0zM1077 139l3 1 1-4c2-1 8 2 7 4l-3 2c-1 1 8 9 3 11-3 1-8-6-12-5-1 0-4-9 1-9 0 0-1 0 0 0zM1115 118c-1-1-7-3-7 1 0 2 9 8 11 8s2-10 1-11c-2-3-6-3-5 2zM1067 150c0-1 5-6 6-3l-1 1c0 2 0 13-4 14 4-1-9-8-8-6-3-4 3-8 7-6z"/><path d="M1091 124c-1 3-7 3-7 6 0 2 6 3 7 4 4 7-1 18 8 7l3-4c2-1 2 1 4 1 5-2 3 1 4-4l-2-5c-1-3 3-1 1-4-3-3-8-1-10 1 0-1-6-9-8-6v4c-1 2 0 0 0 0zM1111 92c2 0 9-3 7-6-2-2-9-1-11-1-4 0-7 0-4 5l4 6c1 2 3 4 5 2l1-4-2-2zM1088 80l1 1c0-1 1 7 2 5-1 3 1 2-1 3-1 1-9 0-9-1-1-2 5-7 7-8zM1104 102l-5 4c0 1 3-1 3 1l-1 4c0 1-2 10 2 9 3 0 5-8 7-9 2-2 1 2 3 1s-1-7 0-9h-6c-2-1 1-3-3-1-1 0 0-1 0 0zM1106 72c1-1 3-7-1-7l-1 1-2 1-3 3-5 4c-3 2-2 3 2 4 3 1 5 0 6 3 0 2 0 4 3 1l2-3v-1h3c1-2-3-5-4-6zM1121 102c2-1 3-2 3-4h-1l-3-2-7 3c-1 1 4 3 4 4l-1 3h5c2-2 2-3 0-4zM1118 75c0 2-3 5-2 6 1 2 5 0 6 0 8 1 2 1 5-6 1-2 6-4 5-8l-7-6c-2 0-3 5-4 6-1 0-11-1-10 1 0 3 6 6 7 7 0 2-1-1 0 0zM1123 94c-2-1-1-10 0-11 4 0 2 9 1 10l-1 1s1 0 0 0zM1077 158c5-5 8 11 9 13-4-1-14-9-9-13 0-1-1 1 0 0zM1122 56c3 4-10 6-12 8l4-6c2-1 6-3 8-2 0 1 0 0 0 0 3 4-1 0 0 0zM1147 46c0-4-14 4-16 5-5 6 4 14 8 7l8-12z"/>
</g><path d="M1060.9 452.6v27.8h15.9v4.9h-22.2v-32.7zM1121.5 460.3c-1.6-2.6-3.7-4.6-6.5-6s-5.8-2.1-9.2-2.1c-3.5 0-6.7.6-9.4 2.1s-4.9 3.5-6.4 6.2-2.3 5.5-2.3 8.5c0 3.1.7 5.9 2.3 8.5s3.8 4.6 6.5 6.1 5.8 2.2 9.2 2.2c3.5 0 6.5-.7 9.3-2.2a16.6 16.6 0 006.5-23.3zm-7.3 16.8a11.5 11.5 0 01-8.3 3.2c-2.3 0-4.3-.5-6-1.4-1.7-.9-3.1-2.2-4.1-4s-1.5-3.7-1.5-5.9.4-4.3 1.4-6 2.3-3.1 4.1-4a13.3 13.3 0 0112 0c1.7.9 3.1 2.2 4.1 4s1.5 3.7 1.5 5.9a10 10 0 01-3.2 8.2zM1144.4 452.6l19.5 22.9v-22.9h6.2v32.7h-5.5l-19.5-23.2v23.2h-6.2v-32.7zM1215.2 460.6c-1.5-2.6-3.5-4.5-6.2-5.9s-5.7-2.1-9.1-2.1v.1h-13.7v32.7h13.3a20 20 0 009.4-2 15.4 15.4 0 008.5-14.3c0-3.2-.6-5.9-2.2-8.5zm-7.5 16.6a11.4 11.4 0 01-8.4 3.2v-.1h-6.7v-22.9h6.5c3.6 0 6.5 1 8.6 3.1 2.1 2.1 3.2 4.9 3.2 8.4 0 3.4-1.1 6.2-3.2 8.3zM1264.8 460.3a15.7 15.7 0 00-6.5-6 20 20 0 00-9.2-2.1c-3.5 0-6.7.6-9.4 2.1s-4.9 3.5-6.4 6.2-2.3 5.5-2.3 8.5c0 3.1.7 5.9 2.3 8.5 1.6 2.6 3.8 4.6 6.5 6.1s5.8 2.2 9.2 2.2a19 19 0 009.3-2.2 16.6 16.6 0 006.5-23.3zm-7.3 16.8a11.5 11.5 0 01-8.3 3.2c-2.3 0-4.3-.5-6-1.4-1.7-.9-3.1-2.2-4.1-4s-1.5-3.7-1.5-5.9.4-4.3 1.4-6 2.3-3.1 4.1-4a13.3 13.3 0 0112 0c1.7.9 3.1 2.2 4.1 4s1.5 3.7 1.5 5.9c0 3.4-1 6.1-3.2 8.2zM932.5 434.4h507v3.5h-507zM1287.6 452.6l19.5 22.9v-22.9h6.1v32.7h-5.3l-19.7-23.2v23.2h-6.1v-32.7zM1029.5 362.3c8.2.1 16.5 2.3 23.5 8 11.4 9.3 11.4 23.6.2 33a40.7 40.7 0 01-48.3.4c-11.7-9.4-11.7-24.4.1-33.7a37.8 37.8 0 0124.5-7.7zm17.2 26.6c-.4-4.9-.5-8.2-.9-11.5-1.1-7.8-5.1-12.1-12.7-13-3.3-.4-6.9-.1-10.2.4-5.5.8-9.1 4.1-10.4 9.7-2 8.4-1.8 16.9.1 25.3 1 4.2 3.7 7.1 7.8 8.5 6 2.1 12.2 2.3 17.9-.6 2.5-1.3 5-3.9 6-6.5 1.5-4.4 1.8-9.2 2.4-12.3zM1427 410h-35.9c3.4-1.4 6.1-2.1 8.3-3.5a6.6 6.6 0 002.4-4.2c1.1-6-.7-10.8-5.6-14.9-5.2-4.4-9.7-9.7-14.4-14.7a28.6 28.6 0 00-13.2-8.8h39.7l-10.9 3.9 19.8 18.1c2.7-3.6 6.7-8.6 10.4-13.8.5-.7.2-2.8-.5-3.3-2.4-1.9-5.1-3.4-7.6-4.9h22c-6.3 2.1-10.2 7-14 11.9-1.5 2-2.8 4.1-4.6 5.9-5 5-6.9 10.8-6.2 17.9.6 5.8 1.8 8 7.6 9.2l2.7.4v.8zm-97-44.4c-5.2-1.2-9.4-.4-12.4 4.7-2.7 4.5-6 8.6-9.5 13.3v-20h58.8v20c-3.5-4.8-7.1-9-9.8-13.7-3-5.1-7.3-5.2-12.5-4.3V399c0 6.4 1.9 8.7 8.4 9.8.9.2 1.8.2 2.7 1H1319c3.4-1.3 6.4-2.1 9.1-3.5 1.1-.6 2.2-2.3 2.2-3.5.2-12.1.1-24.1.1-36.2-.2-.3-.4-.6-.4-1zM988.7 410h-58.2c2.7-1.3 5.2-2.2 7.2-3.8 1.1-.8 2-2.7 2.1-4.1.2-10.2.1-20.4.1-30.6 0-3-3-5.9-6.7-6.7-.8-.2-1.6-.3-2.4-1.2h32.9c-2.8 1.4-5.3 2.4-7.6 3.8-.9.6-1.9 2-1.9 3.1l-.1 37.6c5.9 0 11.5.1 17.1-.1 1.3-.1 2.8-1.3 3.8-2.4l10.5-11.5 3.1-3.5.1 19.4zm273.1-18v18h-58.3c2.7-1.4 5.2-2.2 7.2-3.7a5.9 5.9 0 002.1-4.1c.2-10.2.1-20.4.1-30.6 0-3-3-6-6.6-6.7-.8-.2-1.7-.3-2.4-1.2h32.8c-2.7 1.3-5.2 2.3-7.4 3.8-1 .7-1.9 2.2-2 3.4l-.1 37.3c5.9 0 11.7.1 17.4-.1 1.2 0 2.5-1.3 3.5-2.3l10.5-11.5 2.5-2.8c.1.2.4.3.7.5zm-131.4-29.6v16.9l-.4 1.9c-.8-1-1.3-1.5-1.6-2.2a29 29 0 00-28.9-14.8c-6.7.9-11 4.9-12.9 11.2a36.5 36.5 0 000 21.7c2 6.4 6.2 10.6 12.9 11.9 9.7 1.9 18.8.4 25.9-7.1 2.6-2.8 4-6.7 6.2-10.4.1.8.3 1.6.2 2.2-1.9 7.8-7 13-14.3 15.4a43 43 0 01-34.1-2.4c-8-4.1-13.1-10.5-13.2-19.9-.1-9.4 4.9-15.9 12.8-20.2a37 37 0 0133.2-1.4c5.2 2.2 8.9 2.1 12.7-1.9l1.5-.9zm170.5 47.6h-32.7c2.7-1.3 5.2-2.2 7.2-3.7a5.9 5.9 0 002.1-4.1c.2-10.2.1-20.3.1-30.5 0-3-3-6-6.6-6.7-.8-.2-1.7-.3-2.5-1.1h33.4c-3 1.2-5.1 2-7.1 3-2.2 1.1-3 2.9-3 5.5.2 9.5.1 18.9.1 28.4 0 4.5 2.4 7.4 7 8.2l2.3.4c-.2.1-.3.3-.3.6zm-148.4 0h-22.1c6.4-2.9 9.7-8.5 12.8-14.1 5.8-10.2 11.3-20.5 16.9-30.8l2.3-3.9 2.5 3.4c7.7 11.7 15.5 23.2 23 35 4.3 6.7 5.4 7.4 13 10.2h-35.7l9.4-4.5c-2.1-3.1-3.7-5.8-5.6-8.3-.4-.6-1.6-.8-2.5-.8h-18.8c-1.6 0-1.2 0-2.2 1.7-.6 1.1-1.3 2-1 2.7 1.4 3.8 2.8 8.1 8 9.4zm16.2-15.8l-11.5-17.4-9.6 17.4h21.1z"/></svg>
