<svg xmlns="http://www.w3.org/2000/svg" viewBox="240 -528 1440 1440" style="stroke-width: 0px; background-color: black;"><!--style type="text/css">.sun{fill:url(#sun);}</style><linearGradient id="sun" gradientUnits="userSpaceOnUse" x1="966.146" y1="-34.637" x2="966.146" y2="424.019"><stop offset="0" stop-color="#ffb700"/><stop offset="1" stop-color="#ff5500"/></linearGradient--><path class="sun" fill="white" d="M1193.4 185c10.8-18.6 24.9-33.8 44.4-43 5.2-2.6 11.8-3.3 17.4-4 5.6-.7 13.4 5.6 14.3 11 .2 1.6-1.6 4.9-3.3 5.9-11.8 6.3-21.9 14.3-30.8 24-6.3 6.8-34.5 54.5-18.1 59 20.4 5.4 44.6-46.8 43.2-69.1 0-4.5 3.8-5.9 8.5-2.8 5.6 3.8 8.9 13.6 7.3 20.9-2.1 8.9-6.3 18.6-12 27.5-9.9 15.5-26.6 34.5-45.8 36.4-23.5 2.1-36-23.5-32.9-44.6 1.2-7.3 3.8-14.6 7.8-21.2zm68.9-67.2c-1.9 1.9-3.8 4.5-6.1 6.6-2.6 2.6-5.2 1.2-8-.7-9.9-7-18.3-15.3-25.6-25.4-2.1-3.3-2.8-6.6-.7-9.6 2.8-4 6.6-8 9.9-11.3 3.1-3.1 6.8-2.1 8.7 1.9 6.8 11 13.2 22.1 19.7 33.4 1.1 1.4 1.1 2.5 2.1 5.1zm-97.6 1.9c-10.3-.7-24.2 8.7-47.9 7.3-4-.2-1.6 4.7-1.2 8.2 1.2 5.9.2 11.3-1.2 17.2-6.1 25.6-32.4 69.3-58 84.8-12 8.9-13.4-2.6-10.3-12.7 4.9-16.7 17.2-35.7 15.3-53.1-2.3-21.4-20.2-18.6-26.1-36.7-2.6-8.7 6.8-18.3 9.4-26.1 2.1-7 3.5-17.2-4.5-21.4-9.9-5.6-20.2 10.1-23.5 17.6-2.3 4.7-5.2 11-4.9 16.7 0 5.6 4.9 9.4 6.1 14.8 2.8 10.3-31.3 53.1-39.5 62.3-5.9 7-17.9 25.1-28.9 21.6 6.6-13.2 33.4-45.1 7.8-54.8-9.4-3.5-16.2 9.9-20.7 16.2-8 11-16.4 21.6-25.4 31.7-4.7 5.2-8.9 9.9-13.4 14.8-3.1 3.5-7.3 9.9-12.2 11.3-6.8 1.6-3.8-4.2-1.6-8.9 2.3-6.6 5.9-13.4 8.9-19.7 11-20.4 28.4-41.1 49.3-52.2 4.7-2.6 9.4-4.2 14.8-5.6 3.1-.7 11-.2 13.4-3.1 5.6-6.6-8.5-16.4-13.6-17.9-13.6-3.8-29.1 1.6-43.2 8.7-11 5.6-28.2 20.2-43 39.5-33.8 43.5-70.3 86.7-70.7 57.8-.5-12.9 18.6-29.8 25.1-40.9 6.3-10.3 13.9-21.4 6.3-33.8-17.2-28.4-48.4 12.5-60.6 25.6-.7-5.2 9.2-17.9 11.3-22.6 2.6-4.7 4.9-9.4 5.4-14.8.7-11.5-9.2-23.5-20.2-25.8-12.9-2.3-26.6 16.7-34.5 24.7-11.3 11.3-21.1 23.3-30.8 36 2.1-10.3 10.1-20.2 9.9-31-.2-7.5-10.3-24.7-18.8-15.3-3.1 3.8-4.7 12.5-6.3 16.9-2.3 6.3-5.2 12.7-8 19-6.1 12.7-12.7 25.4-18.3 38.3-4.5 10.6-7.5 20.7-.7 31 3.8 5.6 14.1 15.5 21.1 10.6 4-2.8 5.6-9.9 7.5-14.1 2.6-5.4 4.9-11 7.8-15.7 6.4-13.1 13.9-25.1 22.4-37.1 9.2-13.4 18.8-27 29.6-38.8 1.6-1.6 3.8-3.1 6.1-4.7 3.1-1.4 3.1-2.1 3.8 2.8.2 2.8-1.4 5.6-2.8 8-5.6 11-12.9 21.1-19.3 31.7-6.6 11-14.8 22.8-9.4 36 3.1 8 12.7 17.9 21.9 13.9 10.1-3.8 18.8-22.1 25.4-30.3 8.7-11 17.2-21.4 26.3-32 1.9-2.1 8.2-10.1 10.6-5.6 1.4 2.1-8.7 16.2-10.6 19-10.8 17.9-38.3 50.3-8.5 64.6 26.1 12.7 47.2-17.6 62.7-33.8-.7 17.9 8.5 41.6 30.5 37.6 9.4-1.4 17.2-11 23.3-17.9 7.8-9.4 14.8-19.7 22.1-29.8 4.2 9.9 8.7 21.4 20 25.4 13.2 4.7 21.6-7.8 28.4-16.7 19-23 35.2-48.2 51.5-73.1 14.3 9.9 5.2 21.9-2.1 33.8-7 11-15.3 22.6-18.1 35.7-4.9 24.2 19 48.9 43.9 39.5 34.8-13.4 65.1-71.7 74.3-98.9 2.6-7.8 13.9-8.5 20.9-10.3 4.9-1.2 10.1-2.6 13.6-3.8-2.1 16.2-24 44.9-31 51.2-5.6 4.9-13.4 10.1-11.5 18.6 2.1 9.4 7 18.3 8.7 28.4 4 21.9 1.2 52.6.2 57.6l-25.4 11.3c-29.8 12.9-148.5 81.5-82.5 103.2 33.6 11 74.7-4.5 98.9-32.9 10.3-12.2 19.3-26.3 27-41.1 5.2-10.1 11-23.5 13.9-34.5 17.9-6.1 58-19.7 84.4-9.9.7.2 8.9-3.5 0-9.9-15.7-11.5-64.9-4.7-80.6.2 4.2-31.5-3.3-51-26.8-74.7 18.3-7.5 47-28.9 52.2-51 2.8-14.4 3.5-36.2-25.4-38.1zm-41.8 198.8c-1.2 7.3-12.2 28.9-27 47-11.8 14.3-46.1 38.8-64.9 33.8-20.9-5.6 19.7-54.3 86.7-79 1.7-.6 3.6-1.3 5.2-1.8z"/></svg>