<svg version="1.1" xmlns="http://www.w3.org/2000/svg" xmlns:xlink="http://www.w3.org/1999/xlink" viewBox="101 21.9 798 798">
<use  xlink:href="#shadow1" x="0" y="1.0" style="fill: black; stroke: black; stroke-width:3.33;"/>

<g id="shadow1" style=" fill: white;" >
	<path id="logo-ink" d="M462.9 356.6c2.9.9 2.1 6.5-.8 8.2-1 .5-2.1-.2-2.6-1.2-.5-1.2-.2-2.5.8-3 .9-.5 2.1 0 2.7 1.2.8-2.2.2-4.5-2.9-4-.9.2-2.5.8-3.3 1.4-7.1 4.5-15.2 18.6-15.1 23.9 0 1.5.7 2.4 2.2 2.1 8.8-1.5 15-16.5 17.1-19.1.2-.2.2-.2.5-.2 3.1 0 5.2-5.3 4.2-8.2.3-.6.9-1.4 1.2-1.7.4-.4.9-.6 2.1-.8.6-.2 1.4-.3 2.5-.5.8-.2 1 0 1 .2 0 .3-.5.8-1 1.5-2.2 3.2-11.4 18.9-11.4 23.9 0 1.1.5 1.6 1.5 1.5 1.6-.2 3.9-2.5 6.4-6.1.2-.2.3-.3.5-.4.3-.1.7.2.7.6 0 .1-.1.2-.1.2-1 2.2-7.4 10.8-12 11.9-2.1.3-2.8-1.2-2.8-3.4s.7-5.1 1.5-7.4c0 0-.1-.3-.3-.3-.1 0-.2.1-.2.2-1.3 2.1-9 12.2-15.3 13.3-3.1.5-4.5-.9-4.6-3.5-.6-9.4 17.9-33.6 27.5-30.3zm48.8 65.9c0 .5.3.9.9.8 1-.2 1.7-.3 1.7.8 0 5.4-12.2 26.2-12.2 33.6 0 2 .8 3.2 3.4 2.8 5.8-.9 13.8-11.5 15.1-14.3.1-.1.1-.2.1-.4 0-.5-.4-.8-.8-.7-.2 0-.5.2-.6.5-2.8 4.3-6.6 7.7-8.4 8-.7.1-1.4.2-1.4-.9s.6-3.2 2.3-7.4c7.4-18.3 10-23.5 10-24.7 0-.5-.3-.5-.8-.4-.9.2-1.8.4-3.5.6-1.5.2-4.4.5-4.9.6-.6.3-.9.6-.9 1.1zm11.8-12.9c0-1.5-1.5-2.5-3.3-2.1-1.8.3-3.4 1.7-3.4 3.2 0 1.5 1.5 2.5 3.3 2.1 2-.2 3.4-1.6 3.4-3.2zm29.4 12.4c.7 9.5-10 26.8-16.6 28-3.8.6-5.5-1.5-5.8-4.9-.5-6.3 3.9-17 9-23.2l1.2-.2c5.3-.8 8.6-3.8 8.4-5.4-.1-.7-.9-1.2-2.6-.8-2.3.4-4.8 1.8-7.2 4-2.9-.2-6.1-.8-9.2-.2-2.4.4-7.4 2.2-7.1 5.4 0 .4.4.5.8.5.3-.1.7-.3.7-.7 0-1.1 1.2-2 2.5-2.2 2.7-.5 6.3-.1 9.8-.1-7.1 7.6-13.1 20-12.6 27.2.3 4.1 2.6 6.6 8.1 5.7 14.6-2.5 25.2-29.1 24.5-38.7-.2-2.4-1-3.7-2.6-3.4-1.6.2-2.9 1.1-2.8 2.9-.2 1.8 1.2 2.2 1.5 6.1zm-9.2-2.6c-.7.2-1.4.2-2.1.2 1.5-1.4 2.9-2.3 4.3-2.5.9-.2 1.4 0 1.4.2 0 .5-1.9 1.8-3.6 2.1zm-121.6-69.9c0 11-12.1 21.2-21.2 22.8-6.1 1-9-2.7-9-8.3 0-10 9.9-25.5 30.1-29 5.4-.9 13.2-1.5 20.8-2.1-7.3 18-21.6 53.5-22.7 55.9-1.5 3.3-2.4 4.7-6.1 5.4-.5.2-.5.5-.5.8.1.2-.1.6.5.5.6-.2 5-1 7.2-1.4 3-.5 6.6-.8 7.2-1 .5-.1.7-.5.7-.8 0-.3-.2-.5-.3-.5-.8.2-1.3.2-1.8.2-1.5.1-2.7-.4-2.7-1.5 0-.3.2-.7.3-1.2 11.5-30.4 19.6-49 23-56.8 6.4-.5 12.2-1 16-1.6 20.9-3.6 25.8-8.4 25.8-10.7 0-.9-.7-1.4-1.4-1.2-.6.1-1.2.7-1.5 1.7-.6 3.2-5.3 4.6-11.8 5.8-17.6 3-29.7 0-44.5 2.5-27.1 4.6-42.9 25.4-42.9 37.2 0 5.6 3.7 9.2 11.4 7.9 17.8-3.1 26.4-19.4 26.4-26.5 0-2.2-.8-3.6-2.5-3.3-.8.2-1.5.6-1.5 1.5 0 .3.2.8.4 1.2.4.6.6 1.4.6 2.5zm104.7 18.1c-.7.2-1.2-.2-1.2-1.1 0-4 9.3-28.2 21.2-44.1 3.2.2 7.1.2 11.5-.6 10.6-1.8 15.9-6.6 15.9-10.1 0-3-3.6-5.1-10.8-3.8-1.9.3-3.8 1-5.8 1.9-2.7-2.1-8.3-2.9-13.4-2-6.8 1.2-10 4-10 7s3.2 5.9 9.3 7.2c-4.8 5.9-9.6 13.4-14.2 22.5-1.2-1.7-3.2-1.6-5.1-1.3-4.5.8-9.7 4.8-13.2 8.8-5.8 6.6-10.1 15.3-10.1 20.2 0 2.8 1.4 4.4 4.6 3.8 6.1-1.1 14-10.9 15.4-13l.2-.2c-.7 1.9-1.2 4.5-1.2 6.7 0 2.3.7 4.1 2.6 3.7 4.5-.8 10.9-9.1 11.9-11.3.1-.1.1-.2.1-.3 0-.4-.3-.6-.7-.5-.2 0-.3.2-.5.3-2.2 3.7-4.9 6-6.5 6.2zm1.4-20.8c-1.8 3.8-3.5 7.7-5.3 11.8-3.6 5.1-9.2 11.6-13.3 12.3-1.7.3-2.3-.8-2.3-2.6 0-3.5 2.7-10.1 6.4-15.4 3.3-4.8 8.1-8.1 11.2-8.7 1.9-.2 3.3.6 3.3 2.6zm16.9-38.2c4.1-.7 8.5-.2 10.8 2.1-3.8 2.2-7.6 5.6-11.4 10-4.6-1.2-6.8-3.7-6.8-6.1 0-2.5 2.6-5.1 7.4-6zm19.4.2c3.3-.5 5.1 1 5.1 3.1 0 3.1-3.7 7.5-11.9 8.9-3.8.7-7.1.8-9.7.6 2.9-3.8 6-6.9 9-9.1l.4 1.2s.3.4.8.3c.8-.2 1.2-.5 1.2-1 0-.6-.2-1.2-.5-1.7 1.8-1.3 3.8-2 5.6-2.3zm-.5 29.3c0-2-1.6-3.1-5.4-2.4-10.1 1.8-23.2 20-23.2 28.7 0 3.2 1.8 5.1 6.1 4.4 8.1-1.4 15.1-9 18.9-15.3.2-.2.2-.4.2-.5 0-.4-.3-.8-.7-.7-.2 0-.3.1-.4.3-3.5 5.6-8.2 10.7-13 11.5-3.1.5-4.4-1.2-4.4-4.1 0-1.2.3-2.8.7-4.3.3 0 .6 0 .8-.1 9.9-1.7 20.4-12.4 20.4-17.5zm-6.6-.6c1-.2 1.5.4 1.5 1.3 0 3.8-6.9 14.4-15 15.8-.3.1-.5.1-.8.1 2.4-7.4 8.7-16.2 14.3-17.2zm12.5-4.3l1.4 1c-1.2 5.3-5.6 14.5-7.8 19.8-2.1 5.1-4.1 10.2-4.3 10.7 0 0-.1.2-.1.3 0 .5.8.5 1.8.4 1.4-.2 3.1-.9 3.3-1.3 0 0 1.2-3.1 2.7-6.7 2.2-5.5 11.8-21.2 15.1-21.7.3-.1.5.1.5.4-.1 1.8-7.1 19.1-10 25.8 0 0-.1.2-.1.3 0 .5.8.5 1.8.4 1.4-.2 3.1-.9 3.3-1.3.8-2 2.5-6.2 4-9.2 3.6-6.9 12.7-19.3 15.8-19.9.9-.2 1.4.5 1.4 1.7 0 4.4-3.6 15.3-9.3 21.7-.5-.1-1.2 0-1.7.1-3.8.7-6.5 3.4-6.5 4.8 0 .6.5.9 1.5.8 1.9-.3 4.2-1.8 6.7-3.8 3.8 1.5 14.9 8.9 18.5 2.9.2-.2.2-.5.2-.6 0-.3-.2-.6-.5-.5-.2 0-.3.2-.5.5-3.9 5.4-12.7-3-16-3.8 7.7-7.2 13.6-18.9 13.6-24.8 0-2.3-1.2-3.6-4.3-3.1-5.5.9-12.8 12.7-15.8 16.6-.1 0-.2-.1-.2-.1 0-1.2 3.5-8.3 3.5-11.7 0-1.4-.7-2.3-2-2.1-4.4.8-11.1 11.4-13.9 15.3-.2-.1-.2-.2-.2-.3l2.5-6.7c1.5-4.1 2.4-5.6 2.4-6.3 0-.4-.3-.5-.7-.4-.8.2-1.5.3-2.8.5-.9 0-2.4.1-3.3.3zm16.5 23.8c.5-.1 1-.1 1.5-.1-1.5 1.3-2.8 2.2-4.1 2.5-.6.1-.8-.1-.8-.3 0-.6 1.2-1.6 3.4-2.1zm-99.5 71.3c.1 1.4-1 3.4-2.7 3.8-.9.2-1.7-.2-1.8-1.1-.1-.7.5-2.1.5-2.7-.1-1.2-1.5-1.6-3.3-1.2-2.8.6-6.3 3.1-6.1 6.7.3 5.1 8.1 9.3 8.4 15.4.6 9.5-8.7 17-17 18.9-8.3 1.8-12.3-1.9-12.7-6.7v-1.4c-4.4 6-10.7 12-17.6 13.8-4.8 1.2-6.8-.7-6.8-4.2 0-9.6 14.3-31 25.5-33.8 4.2-1.1 6 0 6 2.1 0 5.6-11.5 18.4-22.5 21.2-.2.1-.5.2-.9.2-.5 1.8-.8 3.5-.8 4.8 0 3.1 1.4 4.9 4.8 4.1 4.8-1.2 9.5-6.2 13.1-12 1.6-3.8 5.2-7.1 10.7-8.4 4.1-.9 6.2 1.1 6.4 3.3.2 1.8-1 3.8-3.2 4.3-.8.2-1.1 0-1.2-.5-.1-.7.3-1.8.2-3.3-.1-1.7-1.3-2.5-3.2-2.1-4.8 1.1-7.1 5.8-6.7 10 .3 4.3 3.2 7.9 9 6.6 4.8-1.1 9.8-6 9.3-13.7-.3-5-7.1-10.1-7.4-14.4-.4-6.5 6.5-11.4 12.3-12.7 4.1-.7 7.5 0 7.7 3zm-50.5 29.8c.2 0 .5-.1.8-.2 9-2.3 16.6-14.6 16.6-18.9 0-1.1-.5-1.6-1.5-1.3-6.1 1.7-13.2 12.1-15.9 20.4zm115.9-12.7c.2 2.9 1.8 4.5 5.3 3.9 7.1-1.2 15.1-12.5 16.5-14.9l.3-.3c.2-.1.3.3.3.3-.8 2.6-1.5 5.9-1.3 8.4.2 2.5 1.1 4.1 3.4 3.8 5.2-1.2 11.9-10.8 12.9-13.3l.1-.2c0-.5-.5-.8-.8-.7-.2 0-.4.2-.5.4-2.5 4.1-5.1 6.6-6.7 6.9-1.2.2-1.7-.4-1.8-1.6-.4-5.6 9.1-23.2 11.4-26.8.5-.8 1.1-1.4 1.1-1.8 0-.2-.3-.3-1.1-.2l-2.7.5c-1.3.3-1.9.6-2.3 1-.4.3-1 1.2-1.3 1.9 1.2 3.2-.8 9.1-4.3 9.1-.2 0-.4-.1-.5.2-2.2 2.9-8.4 19.7-18.1 21.3-1.7.3-2.5-.7-2.6-2.4-.4-6.1 7.9-21.7 15.6-26.8.9-.6 2.6-1.4 3.6-1.5 3.5-.6 4.3 2 3.5 4.5-.7-1.2-2-1.8-3-1.3-1.1.5-1.3 2.1-.7 3.3.6 1.2 1.9 1.9 3 1.4 3.3-1.8 3.8-8.1.5-9.2-11.2-3.6-30.5 23.3-29.8 34.1zm64-64.1c-.4.2-.8.5-1.3.8-4.8 9.4-9.5 24.8-12.1 33.4-.7 2.1-5.9 16.9-5.7 19.8.1.8.5.8 1.2.6 1.7-.4 4.6-3.1 6.9-7.2l.5-.5c.4-.1.8.2.8.6 0 .1 0 .2-.1.3-.9 2.5-7.5 12.5-12.7 13.7-2.3.5-3.1-.5-3.3-2.4-.2-2.5.9-6.1 2.1-9.7 5.2-15 10.5-33.7 19.4-47.8-4.4.7-17.3-3.7-19.9 4.3-.2.5-.2.6-.4.7-.3.2-.6.1-.8-.3-.1-.2-.1-.5 0-.8 2-8.7 17.8-6.3 22.8-6.7 2.1-3.6 4.3-6.4 6.4-7.7 1.2-.8 1.8-.7 2.1 0 .4 1.7-1.6 6.2-5.9 8.9zm-87.8-.2c-9.9.5-17.7 3.6-23.4 7.5-6.1-4-11.4-8.7-16.3-10.4 7.7-6.3 15.7-17.9 15.7-23.9 0-2.3-1.2-3.8-4.3-3.5-5.4.3-11.4 5.9-15.3 9.8-.4.4-.6.6-.8.6-.2-.1-.2-.2-.2-.3 2.6-6.5 3.5-8 3.5-8.7 0-.4-.3-.5-.7-.5-.8.1-1.5.2-2.8.2-1.2.1-3.5.1-4 .1-.4 0-.6.3-.6.6 0 .4.3.8.8.8.8-.1 1.3-.1 1.3.8 0 3-9.6 22.9-11.5 28.1 0 0-.1.2-.1.3 0 .5.8.6 1.8.6 1.4-.1 3.1-.6 3.3-.9 0 0 5.8-14.2 7.4-16.9 1.5-2.5 9.5-10.4 13-10.6 2-.1 2.8 1.2 2.8 3 0 4.9-5.4 14.7-10.9 19.9-.6-.1-1.2-.2-1.8-.2-3.8.2-6.5 2.7-6.5 4 0 .6.5 1 1.5.9 2.1-.1 4.5-1.4 7.1-3.4 4.9 1.5 10 6.3 16 10.5-5.4 4.2-8.4 9.3-8.4 13.1 0 3.5 2.5 6 7.7 5.9-.5 1.8-1.5 4.7-2.8 8.1-14.3 3.1-19.2 1.2-19.2-1.5 0-1.9 2.5-4.1 5.6-5 4-1.1 7.7-.3 9.2 2.8.2.2.3.3.5.2.4-.1.8-.5.8-.9 0-3.1-6.5-3.9-10.8-2.8-4.5 1.2-7.8 4.4-7.8 7 0 3.3 5.5 5.7 21.2 1.5-4.9 13.3-12.9 33.4-13.2 33.9-1.5 3.5-2.9 7.1-2.9 9.5 0 1.8.8 2.9 3.1 2.6 5.3-.8 13.4-10.4 14.6-12.8.1-.1.1-.2.1-.3 0-.5-.4-.7-.8-.6-.2 0-.4.2-.5.4-2.5 3.3-6.4 6.9-8.3 7.1-.7.1-1.2-.2-1.2-1.3 0-4.6 8.6-25.2 15.1-40.3 2.3-.8 4.5-1.5 6.5-2.3 0 0 .5-.2 4.1-1.6-.2-.2-.2-.3-.3-.5-1.2.5-2.7 1.1-3.8 1.5-1.5.5-3.2 1.1-5 1.5l-1.1.3c3.8-8.7 6.7-15.3 6.7-15.6 0-.2-.1-.4-.3-.3-1.9.3-5.4 3.6-7.8 4.8-.2.1-.5.2-.8.3l-.3.1-.2.1c-.2.1-.5.1-.8.1-3.8.2-5.5-1.3-5.5-3.6 0-2.8 2.6-7 7.4-10.6 5.4 3.7 11.6 6.8 18.9 6.4 11.7-.7 18.6-6 18.6-10.3.2-3.2-4-5.8-13.3-5.3zm-47 .1c-.6 0-.8-.2-.8-.5 0-.6 1.3-1.6 3.8-2 .5 0 1.1 0 1.6.1-1.7 1.4-3.2 2.3-4.6 2.4zm40.7 13.5c-5.8.3-11.1-2.1-16-5.3 5.2-3.5 12.4-6.3 21.1-6.8 6.2-.4 9.2 1.7 9.2 4.3-.1 3.2-5 7.2-14.3 7.8zm9.5 10.5c-2.6.7-5 1.8-7.4 3 .2.3.3.6.4 1 2.1-.8 3.9-1.5 5.8-2 3-.8 3.6.2 4.6-.1.4-.1.8-.6.8-1.2-.2-.8-1.1-1.6-4.2-.7zm88.8-30.5c-.1-.3-.5-.3-1.2.1-1.3 1-2.7 2.8-3.8 5 .6-.2 1.2-.5 1.8-.8 2.3-1.5 3.4-3.5 3.2-4.3zm-191.8 82c.5-.2 1.7-1.2 1.6-1.8 0-.3-.3-.5-1.3-.4l-6 1.2.8-1.9c.4-.8.5-1.3 2.3-5.6 4.3-10.1 8.4-19.6 13.3-26.8 7.5.4 15 .2 22.6-1.8 7.5-2 12-6.8 11.9-10.3-.2-3.6-5-5.9-16.4-2.8-7.3 2-13.6 6.6-19.1 12.7-13.6-.8-29.2-2.5-42.7 1.2-19.4 5.1-29.5 18-29.4 25.9.2 5.1 4.5 8.1 13.6 5.6 6.2-1.7 12.5-6.4 12.4-10.7-.1-1.2-1-1.8-2-1.5-.9.2-1.8 1.2-2.2 2.9-.8 3.5-4.4 6.9-7.8 7.8-4.9 1.3-7.3-1.2-7.4-5.1-.2-7.2 7.1-19.1 20.3-22.6 16.1-4.3 30-2.3 43.4-1.4-7.7 9.4-14.2 21.9-20.5 34.7-.2.5-.3.5-.4.5-8.5 2.6-19.3 7.4-30.7 16.6-.6.5-.8.8-.8.9 0 .3.4.5.4.5.2.2.5.1.7 0 .5-.2 1-.5 1-.5 9.4-7.7 19.1-11.7 28.3-14.4-11.9 24.1-23.8 48.2-43.5 53.5-10.3 2.8-14.9-.4-15-3.1-.1-1.4 1-2.6 2.9-3.1.5-.2 1.2-.2 1.9-.2h.4c1.1-.3 2.1-2.1 2.1-3.3-.1-1.4-1.1-2.4-4-1.6-3.7.9-6.2 4.8-6.1 8.4.2 4.6 4.7 8.6 16.7 5.4 27.6-7.4 40.8-31.2 51.1-54.6.2-.5.7-1.6 1.2-2.8l1.2-.2c2-.9 3.7-1.1 5.2-1.3zm27.4-48.5c8.2-2.2 12-.1 12.2 2.8.1 2.6-2.8 5.6-8.3 7.1-5.2 1.4-11.7 1.5-18.8 1.2 4.1-5.5 9-9.5 14.9-11.1z"/>
</g>
<path fill="white" d="M420.9 495.9l1.6-1.6 9-2.9.8-3.2 5.3-3.2 10.5 1.8-.2-3.6 1.1-2.3 14.3-1.5 130.2-26.1 9.8-3.5 2.2 1.7.3 3.9 10.9-5.9 4.9 1.7.4 2h11.4l-10.9 4.5-4.5.8-1.2-2-5.5 3.3-3.3 5 8.2-2.4 6.2.1-.2 5.1 9.7-4.2 8.1.1-13.6 7.7-6.4 4.8-3.1-.5-.7-1.6.7-2.9-.1-1.6-9.5 9.9-5.5.8-1.5-1.2-.1-2.4-8 3.1-130.7 26-7.8-.2-1.7 4-4.9 2-10.5-5.6-.1 5.7-4.1 1.8-13.1-4.1-5.7-.1 4-2.5 9-1.9 4.5 1.1.7-2.6-.9-2.5 6.3-3 4.1.1 4.2-.4-.1-.7-3-2.8-5.6-1.8-1 3-3.4 1.2z"/>
<path d="M427.6 508.6c-.4-.6-2.1-1.3-3-1.3h-.2v.2c0 .2.2.2.2.2l1.4.2 1.4.8h.2zm0 .6h-.2v.2c0 .2.2.3.4.3 0 0 0-.2.2-.2 0-.2-.2-.3-.4-.3zm19.9-15.5c.4-.5-.4-.8-.5-.9l-.2.2c0 .3.4.5.7.7zm158.8-31.8c.4-.2.7-.7.7-1l-.2-.2c-.1.2-.9.9-.5 1.2zm40.3 4.9c-.4.5-1.9-1-2.3-1.2-2.1-.8-5.3-.8-8.3.5-2.6 1.1-4.9 2.5-7.1 4.4-1.6 1.5-3 3.2-5.1 4.5-.7.5-2.6 1.4-3.7 1.5l-1.6-.2-.5.1c-.4.1-1.2-.6-1.4-.9-.8-1.6.2-3.2.4-5l-.2-.2c-1.4.3-2.1 1.7-2.8 2.7l-1.9 2.1c-1.4 1.7-2.6 3.4-4.9 4.7-1.1.5-2.8 1.1-3.8.9-1.2-.3-2.5-.9-3-1.8-.4-.6.4-1.8-.4-2.1l-2.6 1.4c-1.1.5-2.1.9-3.4 1.4l-1.9.5-1.8.5c-.5.1-.8.2-1.4.1-2.3.8-7.7 1.5-10 2l-4.7.9c-10.7 2.1-21.9 4.5-32.5 6.5-5.6 1-10.7 2.3-16.3 3.2-14.4 2.9-28.1 5.8-42.5 8.5l-8 1.6c-2.3.5-7.7 1.9-10 2-.5.3-.9.4-1.4.5l-1.8.2-1.9.2c-1.2.1-2.3.1-3.4-.1l-2.6-.4c-.7.5 0 1.4-.4 2.2-.5 1.2-1.8 2.3-3 3.1-1.1.5-2.8.8-3.8.6-2.3-.4-3.5-1.6-4.9-2.7l-1.9-1.4c-.7-.8-1.4-1.8-2.8-1.5l-.2.2c.2 1.7 1.2 2.9.4 4.8-.2.4-1.1 1.5-1.4 1.5l-.5.1-1.6.8c-1.1.4-3 .2-3.7 0-2.1-.5-3.5-1.6-5.1-2.5-2.1-1-4.4-1.6-7.1-1.6-3-.1-6.1 1.2-8.3 2.9-.4.2-1.9 2.3-2.3 2.1.7-1.9 3.5-3.5 5.1-4.7.4-.1.4-.6.7-.8 2.8-1.8 5.4-3.4 9.7-4.2l2.5-.5c1.4.1 3 .3 4.1.8l1.8.5c.7-1.2.7-3.5 0-4.2 0-.4-.4-.1-.5-.5.2-.8 1.1-1.3 1.8-1.6 1.4-1 4.8-2.4 7.1-2.3 1.1 0 1.9.3 3 .5l.8-.2c.7-.2 1.6.2 2.1-.1 0 0 .2 0 .2-.2-.2-.5-.5-.8-.9-1.1-.8-.9-1.9-1.5-3-2.1l-1.9-.7c-.4-.1-2.1-.6-2.6-.4-.4.6-.4 1.2-.7 1.9-.2.4-2.5 2.2-3 2v-.2s.2-.2.2-.4c-1.8.4-3.7.8-5.3.7-2.3-.1-4.9-.9-7.9.2-1.8.7-3.1 1.3-4.4 2.5-.4.4-1.4 1.7-1.8 1.8v-.2c.5-1.2 2.5-2.6 3.5-3.5l1.9-1.6c1.8-1.4 4.1-2.8 6.4-3.5 1.1-.4 2.8-1.1 4.1-1.2.5.1 1.1-.1 1.6-.2l.5-3.3.5-.1c.4-.2 1.2-1.3 1.8-1.6 1.6-1 3.8-1.8 5.8-1.7.8.2 1.6.5 2.3.8 1.1.2 1.8.4 2.6.7.5.1 2.1.6 2.6.5 0-1.1 0-2.1.2-3.2s1.1-2.5 1.9-3l1.9-.9c1.8-.4 3.1.2 4.8.1l4.6-.4c1.1 0 3-.2 4.1-.6l1.1-.2c1.2-.1 3.1-.5 4.4-.8.7-.3 2.1-.4 4.4-.8l6.7-1.3c3.8-.9 8.7-1.5 18.1-3.6l11.9-2.4 37.5-7.5 29.7-5.9c2.3-.5 3.7-.9 4.4-.8l4.4-.8 1.1-.2c1.1 0 3-.6 4.1-1l4.6-1.5c1.6-.5 3-1.7 4.8-2l1.9.2c.8.2 1.8 1.2 1.9 2.2.2 1 .2 2.1.2 3.1.5-.1 2.1-1.3 2.6-1.6.9-.7 1.6-1.2 2.6-1.8.7-.5 1.4-1.2 2.3-1.7 1.9-.9 4.2-1 5.8-.6.5.1 1.4.8 1.8.8l.5-.1.5 3.1c.5-.1 1.1-.2 1.6-.5 1.2-.5 3-.5 4.1-.5 2.3-.1 4.6.3 6.4 1l1.9.8c1.1.5 3 1.2 3.5 2.1v.2c-.4.1-1.4-.8-1.8-1.1-1.2-.6-2.6-.7-4.4-.7-3 .1-5.6 2-7.9 3-1.6.7-3.5 1.1-5.3 1.4 0 .2.2.3.2.3v.2c-.5.5-2.8-.5-3-.8-.4-.6-.4-1.2-.7-1.6-.5-.1-2.3 1.2-2.6 1.4l-1.9 1.5c-1.1.9-2.1 2-3 3.2-.4.4-.7.8-.8 1.4 0 .2.2.2.2.2.5.1 1.4-.6 2.1-.8l.8-.2 3-1.7c2.3-1 5.6-.9 7.1-.5.7.1 1.6.2 1.8.9-.2.4-.5.3-.5.6-.7 1-.7 3.3 0 4.2l1.8-1.2c1.1-.9 2.6-1.8 4.1-2.4l2.5-.5c4.2-.8 6.8-.3 9.7.4.4.1.4.6.7.5.7 1 3.6 1.4 4.3 3zm-7.6-2.8c-.5.1-1.1-.2-1.6-.2l-3 .1c-3 .1-6.1 1.2-8.4 2.5l-2.5 1-.5.6c0 .4 0 .5.2.7 0 1.1-.5 2.2-.9 2.6.2-.5.5-1.3.4-2.1l-1.1-2.8-.4-1.3c0-.9.7-1.4.7-2.1-.4-.3-.5-.2-.8-.2-1.9-.3-4.8-.3-7.2.5l-2.5 1.2c-.5.1-.8.4-1.4.6-.4.1-.7.3-1.1.5 0 0-1.1-.5-1.1-.7-.2-.5 1.2-2.7 1.6-3.1 1.9-2.7 4.2-4.9 7.6-6.4 1.6-.8 4.8-.8 4.8.6-.4.4-1.9 2.5-2.8 1.8.4-.6 1.4-1.5 1.6-1.9h-.2c-.4.1-.8.5-1.2.8 0-.4.4-.6.2-.9-1.1.1-.5 1.2-.8 1.8-.4-.1-.2-.8-.4-1h-.2c-.4.6 0 1.4.2 1.5.4-.1.4-.1.5-.3 0 .2.4.5.5.4.5.1.7-.2 1.1-.2l2.1-.6c1.1-.4 2.1-.6 3-1.2l3.1-1.7c1.1-.2 2.3-.5 3.4-.8h.2v.2c-1.6-.5-4.6-.7-6.8-.2-.5.1-2.1-.1-2.6.4-.2.4.2 1 0 1.6l-.5-1.3-.5-.6v-.8l-.4-.5c0-.2.2-.4.2-.8 0-.5-.7-.9-1.1-1l-.9-.2c-2.5-.4-5.1.2-7.4 1.8-.8.7-1.6 1.7-2.5 2.2l-1.9.9c-.5.1-.8.2-1.4.5 0 0-.2.2-.4.2-.5 1.3 0 2.6-.2 4.1-.2.8 0 1.6 0 2.3l.5 6.9c.2 0 .2 0 .2.2.7-.8 2.8-2.5 3.8-2.7h.2v.2c-.2.4-.7.7-1.2.9-.5.3-2.6 1.8-2.8 2.1 0 .4 0 .5.2.8l.5-.6c.4-.2.8-.7 1.4-.8l.2.2c.2.5-1.4 1-1.6 1.4-.7.8-.7 2.6-.8 3.7l-.2-2.8c-.2-1.5-.5-2.9-.8-4.2l-.4-1.8c-.4-.8-1.9-1.9-2.6-2.3v-.2h.2c.7 0 1.6 1.3 2.3 1.5h.2c0-1.6-1.6-1.5-2.6-1.9 0-.2.2-.2.2-.2.5-.3 1.4.2 1.9.5 0-.2.2-.2.2-.2.2-.4-.4-1.7-.4-2.1l.2-.9c-.2-.3-.2-.7-.2-1.2-.5-1.5-2.1-1.2-3.1-1.8-.2-.2 0-.2.2-.2.8 0 1.6.5 2.3.8l.4-.1c-.2-.5-1.1-.5-1.4-.8l.2-.2c.5-.1.7.2 1.4.1.8-1.1.7-2.2 1.1-3.8 0-.4.4-.9.4-1.5-.2 0-.2-.2-.4-.3-.5-.6-1.1-.8-2.5-.4-2.1.6-3.8 1.5-6.1 2.3l-3.4 1-3.4.8-1.6.3-16.9 3.4-11.3 2.2-22.5 4.5-4.4.8c-4.4 1.1-8.7 1.5-15 3l-11.3 2.2c-6.3 1.5-11.9 2.4-18.2 3.6l-14.4 2.9-9.9 2-3.4.5-3.4.3c-2.3.1-4.1-.1-6.1.2-1.4.1-1.9.5-2.5 1.4-.2.2-.2.4-.4.5 0 .5.4 1 .4 1.3.4 1.3.2 2.6 1.1 3.3.7-.2.9-.5 1.4-.6l.2.2c-.4.5-1.2.8-1.4 1.3l.4-.1c.7-.5 1.4-1.3 2.3-1.7.2 0 .4-.1.2.2-1.1 1.1-2.6 1.4-3.1 3.1 0 .5 0 .8-.2 1.2l.2.8s-.5 1.8-.4 2.1c0 0 .2 0 .2.2.5-.5 1.4-1.3 1.9-1.2 0 0 .2 0 .2.2-1.1.9-2.6 1.4-2.6 3h.2c.7-.5 1.6-2.1 2.3-2.4h.2v.2c-.7.7-2.3 2.4-2.6 3.4l-.4 2c-.4 1.5-.7 2.9-.8 4.6l-.2 2.8c-.2-1-.2-2.8-.9-3.4-.2-.3-1.8-.2-1.6-.8l.2-.2c.5-.1 1.1.2 1.4.2l.5.5c.2-.4.2-.5.2-.9-.2-.3-2.3-.9-2.8-1-.5-.1-1.1-.2-1.2-.5v-.2h.2c1.1-.2 3.1.6 3.8 1.2 0-.2 0-.2.2-.2l.5-7.1c0-.7.2-1.6 0-2.3-.2-1.4.4-2.9-.2-4-.2 0-.4-.1-.4-.1-.5-.1-.9 0-1.4.1l-1.9-.2c-.8-.2-1.6-.9-2.5-1.3-2.3-.8-4.9-.2-7.4 1.2l-.8.5c-.4.2-1.1.9-1.1 1.5 0 .4.2.5.2.7l-.4.6v.7l-.5.8c-.4.4-.2 1.1-.5 1.5-.2-.5.2-1.3 0-1.6-.5-.2-2.1.6-2.6.7-2.3.5-5.3 1.8-6.8 3v.2h.2c1.1 0 2.3-.3 3.4-.5l3.1.4c.8.2 1.9 0 3-.1.7 0 1.4-.3 2.1-.2.4-.1.5.1 1.1-.2.2 0 .5-.5.5-.6.2.2.2.2.5.1.2-.2.5-1.2.2-1.6h-.2c-.2.2 0 .8-.4 1.2-.4-.5.2-1.8-.8-1.4-.2.4.2.5.2.8-.4-.1-.8-.4-1.2-.3h-.2c.2.3 1.2.8 1.6 1.2-.8 1.1-2.5-.4-2.8-.7 0-1.4 3.1-2.8 4.8-2.5 3.4.2 5.6 1.5 7.6 3.4.4.3 1.8 1.9 1.6 2.5 0 .2-1.1 1.1-1.1 1.1-.4-.1-.7-.2-1.1-.2-.5-.1-.8-.2-1.4-.1l-2.5-.2c-2.5.2-5.3 1.2-7.2 2.3-.4.1-.5.1-.8.5 0 .7.7.9.7 1.8l-.4 1.5-1.1 3.2c-.2.9.2 1.5.4 2.1-.4-.3-.8-1.2-.8-2.3.2-.2.2-.4.2-.8l-.5-.5h-2.5c-2.3-.4-5.4-.3-8.4.8l-3 1.2c-.5.3-1.1.8-1.6.8v.2l1.9-.4c1.9 0 4.4.4 6 .8l3.7 1.5c1.8.8 3.5 1.9 5.8 2 .9.2 1.8-.2 2.6-.5.2 0 .8-.4.8-.4.8-.7 1.1-2.5.7-3.7 0-.2-.2-.5-.4-.6 0-.7.4-1.3 0-1.8l-.4.1v.7c-.4-.1-.8-.5-1.6-.1.7.2 2.3 1.2 1.8 2.3-.4-.6-1.9-1.5-3-1.3.5.9 4.1 1.5 2.8 3.3-.2-.5-.8-.7-1.2-.8-.4.1-.5-.1-.7-.2-.5-.4-1.6-.5-1.8-1.2.2-.2.5-1.5.5-1.7h-.2c.5-2.1 4.2-2.2 5.6-2 4.2.9 5.8 5.5 10.4 5.7 1.6 0 2.6-.5 3.7-1.5.2 0 .2 0 .4-.2.4-.6.5-2.1 0-2.6-.4-.5-1.6-.5-2.3-.2v.2c.7.2 1.4.6 2.1 1v.4c-.4-.5-2.1-1.2-2.8-.8l-.2.2v.2l1.1.3c.8.2 2.5 0 1.9 1.5-1.6-.4-6.7-.2-3.8-3.5.8-.9 2.6-1.4 3.7-1.3 1.8.2 3.5.5 5.3.8l3.8.1c.5-.1 1.4-.1 1.9-.4l.8-.2c1.1 0 2.6-.4 3.8-.8l7.1-1.4 9.8-2 13.7-2.8c6.9-1.4 13.7-2.9 20.6-4.1l28.8-5.8c9.4-2.1 18.8-3.6 28.1-5.6l2.8-.5 4-.8 5.1-1v.2c.7-.2 1.3-.3 1.8-.5l.8-.2c.5.1 1.4-.3 1.9-.4l3.8-1.7c1.8-1.1 3.5-2.1 5.3-3 1.1-.5 2.8-.8 3.7-.2 2.8 2.1-2.3 4-3.8 5-.5-1.3 1.1-1.8 1.9-2.3l1.1-.7v-.2l-.2-.2c-.7 0-2.5 1.4-2.8 2v-.4c.7-.7 1.4-1.3 2.1-1.8v-.2c-.7 0-1.9.5-2.3 1.2-.5.8-.4 2.1 0 2.6.2.2.2.2.4.1 1.1.5 2.1.6 3.7 0 4.6-2 6.1-7.2 10.4-9.8 1.4-.8 5.1-2.1 5.6-.2h-.2c0 .2.4 1.4.5 1.5-.2.8-1.2 1.3-1.8 1.9-.2.2-.4.5-.7.5-.4.2-1.1.7-1.2 1.3-1.2-1.3 2.3-3.3 2.8-4.4-1.1.2-2.6 1.8-3 2.5-.5-.9 1.1-2.5 1.8-3-.7-.2-1.2.5-1.6.7v-.7l-.4.1c-.4.6 0 1.1 0 1.8-.2.2-.4.6-.4.8-.4 1.3-.2 3 .7 3.4h.8c.8 0 1.8 0 2.6-.5 2.3-1 4.1-2.8 5.8-4.3l3.7-3c1.6-1 4.1-2.4 6-3.1l1.9-.4v-.4zm-13.2 6c.2 0 .2.2.2.2.2 0 .4-.2.4-.4v-.2h-.2c-.2-.1-.4.1-.4.4zm.4-1.2c.2 0 .2 0 .2.2v-.2l1.4-1.3 1.4-.8s.2 0 .2-.2v-.2h-.2c-.9.3-2.7 1.8-3 2.5zm-157.1 30.7c0 .3.2.4.5.3h.2l.5-.2 1.8-.4.4-.2 1.5-.3c.1 0 .2-.1.2-.2v-.3c0-.2-.5-.2-.6-.2l-.4-.1c-.3-.2-.2-.5-.2-.8l-.2-2.8v-6.8c0-1.4 0-2.8.2-4.1.1-.4.3-.6.6-.9.2-.2.7-.3.7-.5s-.2-.2-.3-.2h-.5l-.4.1c-.1 0-.4.2-.4.2l-.6.1-.5.2-.2.1c-.5.1-1 .1-1.5.1l-.4.1c-.2 0-.4.3-.4.5 0 .6 1.4-.3 1.6.8l.2.9v1.6s-.1.3-.1.4c-.2.5-.6.7-1.2.8-.2.1-.5.1-.7.1l-.7.2-.4.1-.8.1c-.2 0-.4-.2-.5-.3v-.5l.1-1.5v-.5c0-.6.2-1.2.8-1.6.2-.2 1-.2 1-.5 0-.1-.1-.2-.2-.2-.2 0-.7.1-.8.2h-.2l-1.4.5h-.1c-.2 0-.6.1-.6.1l-1.5.1-.5.1c-.2 0-.4.3-.4.5 0 .1.1.2.2.2.4.4.9 0 1.3.3l.2.3c.2.5.2 1 .2 1.5v.3l-.1.2v10.6l-.2 1.1c-.1.7-.7 1.1-1.2 1.5-.1.1-.2.2-.2.3 0 .1.1.2.2.2l.9-.2.5-.1 1.2-.4c.6-.2 1.2-.2 1.8-.2h.1c.2-.2.2-.2.2-.4 0-.4-.3-.3-.6-.4-.4-.1-.7-.5-.7-.8v-2.7l.1-.7v-5.7c.1-.2.2-.3.4-.4l.6-.2.8-.2 1.3-.3c.8-.2 1.2.2 1.2 1.1v5.2c0 1.1.1 2.1-.2 3.2-.1.5-.5.8-1 .9-.5.3-.6.5-.6.7zm8.4-1.4c.7-.2 1.3-.2 1.9-.2h.1c.2-.1.4-.4.4-.6 0-.2-.2-.4-.5-.3l-.5.1c-.2 0-.3-.2-.4-.2-.1-.1-.2-.2-.2-.3l-.1-.8v-.6l.1-3.8-.2-1.5v-.2l.2-3.2v-.1c0-.2-.1-.4-.2-.5-.1-.1-.2-.1-.3-.1-.2 0-.2 0-.2.2l-1.2 1.1-.3.2-.9.6-.2.2-.4.3c0 .2.2.3.4.3s.4-.1.5-.1c.3.1.5.3.5.6v3.5l.1 1v1.1l-.1 2.1c-.1.4-.3.8-.8.9h-.2c-.2.1-.4.3-.4.5s.2.3.4.3h.1l2.2-.6.2.1zm-1.6-15.5c0 .9.2 1.8.7 1.9l.6-.1c.5-.1.8-.5 1.2-1 .2-.2.4-1.2.4-1.3 0-.6-.3-1.3-1.2-1.1-.8.2-1.7 1-1.7 1.6zm4.4 14.5c0 .2.2.4.5.3h.1l1.2-.4.5-.1 1.2-.2.7-.2 1.2-.2c.2 0 .4-.3.4-.5 0-.1-.1-.2-.2-.2-.2-.2-.4-.1-.8-.1-.3 0-.5-.1-.7-.2-.2-.2-.2-.6-.2-.8v-.4c-.1-1.1-.2-2.1-.2-3.2v-2l-.2-2 .2-8.7v-.8c0-.1-.2-.3-.4-.2l-.2.1s-.2.3-.3.3c0 0-.1.2-.2.2-.4.8-1 1-1.6 1.5l-.5.3c-.2.2-.4.4-.4.5 0 .2.2.2.4.2.1 0 .4 0 .5-.1.2 0 .3.1.3.2v4.4l.1 1.1v1.4l.1 2.1v1.2c0 1.4 0 2.8-.1 4.3 0 .4-.1 1-.6 1.2l-.6.2-.3.2c.1.5.1.5.1.6zm5.8-1.1c0 .2.2.4.5.3h.1l1.2-.4.5-.1 1.2-.2.7-.2 1.2-.2c.2 0 .4-.3.4-.5 0-.1-.1-.2-.2-.2-.2-.2-.4-.1-.8-.1-.3 0-.5-.1-.7-.2-.2-.2-.2-.6-.2-.8v-.4c-.1-1.1-.2-2.1-.2-3.2v-2l-.2-2 .2-8.7v-.8c0-.1-.2-.3-.4-.2l-.2.1s-.2.3-.3.3c0 0-.1.2-.2.2-.4.8-1 1-1.6 1.5l-.5.3c-.2.2-.4.4-.4.5 0 .2.2.2.4.2.1 0 .4 0 .5-.1.2 0 .3.1.3.2v4.4l.1 1.1v1.4l.1 2.1v1.2c0 1.4 0 2.8-.1 4.3 0 .4-.1 1-.6 1.2l-.6.2-.3.2c.1.5.1.5.1.6zm11.4-1.9c0 .2.2.3.5.3h.1l1-.4.2-.1c.3-.1.5-.1.8-.1l.9-.2c1.1-.2 2.8-.6 3.8-.8l.9-.2h.5c.2 0 .3-.2.3-.3l.2-1.3.7-2.1v-.1c0-.3-.2-.3-.5-.3-.1 0-.5.1-.8.1-.2 0-.3.2-.3.4l.1.6c0 .5-.2.8-.3 1.4-.2.6-.8.8-1.4 1.1-.2 0-1.8.4-2 .5h-.1c-.2.1-.4-.1-.5-.2l-.2-.8-.2-3.1v-.1l.1-.8v-1.1l.1-3.2c.1-.3.2-.5.5-.6l.5-.1c.2 0 .5-.1.6-.1h.1s.2.1.2.2v.2c-.2.5-.2.9-.2 1.4 0 .4.1.6.4.8.1.1.2.1.4.1.1 0 .2-.1.2-.2v-.6l.2-1.2c.1-.1.2-.8.3-1 .1-.2.1-.2.1-.3 0-.3-.3-.5-.6-.5l-.3.1-1.4.3h-.6s-.1 0-.1-.1l-.2-.2-.1-.2-.1-3.1v-.2c0-.2 0-.4.1-.5l.3-.3c.3-.2.5-.2.8-.2l.5-.1c.5.1.9-.3 1.4 0 .2.1.2.2.3.3l.2.7v.5c0 .1.2.2.3.2l.5-.2c.2-.1.2-.2.3-.3v-.5c-.3-.5-.5-1.2-.6-1.8 0-.2-.2-.2-.3-.2h-.1l-1 .3-1.1.2c-.3.1-.5.2-.8.2h-.2l-2.1.3-.9.2c-.2 0-.7.1-.8 0h-.1c-.2.1-.6.2-.6.5 0 .2.3.3.5.3.1 0 .2-.1.3 0 .3.1.5.2.5.5l.2 4.7v.4l-.1 2.1.1 3.5v.4c0 .5-.1 2.5-.1 2.8 0 .4-.2 1.1-.6 1.2l-.5.2c-.1.3-.2.5-.2.7zm18.4-3.6l.9.1h.1c.2-.1.5-.3.5-.5 0-.1-.2-.2-.2-.2l-.4-.1c-.2 0-.2-.1-.3-.2-.2-.2-.2-.6-.2-.8l.2-5.4v-.3l-.1-1.8c-.2-.6-.3-1.3-.8-1.7l-.8-.5c-.2-.1-.5-.2-.7-.2h-.2l-.8.2s-.1.1-.2.1-.3.2-.3.2l-1 .7-.5.5c-.1 0-.1 0-.1.1-.1 0-.2-.1-.2-.2l-.1-.4c0-.2-.2-.2-.3-.2l-.2.1-.5.4-1.4.9-.5.2c-.2.1-.2.2-.2.3 0 .5.9-.1 1.1.7 0 .7.2 3.7.2 4.3v1.1l.1 1.6v1.3c0 .4-.1.8-.5 1-.2.1-.4.1-.5.2-.1 0-.2.2-.2.2v.4c0 .2.2.2.3.2.2 0 .2 0 .4-.2.2 0 .9-.2 1.2-.2l.4-.1 1.4-.2.5-.1c.2-.1.4-.2.4-.5s-.2-.2-.4-.2l-.2-.1c-.2-.1-.4 0-.5-.2v-2c0-.1-.1-.6-.1-.8v-.9l.1-3.9v-1.6c0-.5.2-.9.6-1.2.1-.1.3-.2.4-.2l.5-.1c.1 0 .3 0 .4.1l.5.2c.2.2.4.4.4.7l.2 2.3v1l.1 2.2v.7c0 .3-.1 1.9-.2 2.2-.1.8-1.1.7-1.1 1.2 0 .2.2.3.3.3l.2-.1.5-.2.3-.1c.6-.1 1-.1 1.5-.3zm11.3-2c.2 0 .2.1.4 0 .2 0 .4-.2.4-.5 0-.1 0-.2-.1-.2-.3-.3-.5-.2-.8-.2-.2-.1-.4-.3-.5-.5-.1-.9-.1-2.1-.1-3.1v-1l.1-2.6v-4.3l-.1-2.1v-.2l.1-3.8c0-.3-.2-.5-.5-.5-.2 0-.3.1-.4.2l-.8 1.1-1.5 1c-.2.1-.2.2-.2.4s.2.2.3.2c.5-.1 1 0 1.1.5v.4c.1.9.2 1.7.2 2.6v.5l-.2.8c-.1.2-.2.3-.3.3h-.2c-.2-.1-.5-.3-.8-.3h-1.3c-.3.1-.4.1-.6.2l-.8.5c-.5.3-.9.8-1.2 1.4l-.1.2-.4 1.8s-.1 1.3-.1 1.8v.2c0 .5.1 3.5.1 3.8l.1.4c.1.2.2.7.2.7l.5.8s.2.2.2.3c.5.4 1.1.5 1.8.5l1-.2c.6-.2 1.1-.8 1.5-1.3l.1-.1c.5-.1.2.6.6.8.2.1.5-.1.6-.1l1.2-.2.5-.2zm2.9 1.9c0 .2.2.2.3.2.1 0 .1 0 .2-.1s.3-.2.4-.2c.7-.5 1-1.2 1.3-1.9l.1-.2c0-.2.1-.7.2-.8v-.3c0-.8-.4-1.8-1.4-1.6l-1 .2c-.7.2-1.1 1-1.1 1.6 0 .5.4.9.9 1 .4.1.8-.1 1 .4v.2c0 .2-.1.5-.2.7l-.5.6c-.2 0-.2.1-.2.2zm10.4-7.4l.3.8c0 .1.2.5.3.5.2.3.6.6.9.8l.5.2 1.2.3h.5l1.2-.3.1-.1c.6-.5 1.3-.8 1.8-1.3l.7-.8c.4-.6.9-1.4 1-2.1l.2-1.9v-2.1l.1-4.3v-.5l-.3-2-.3-.5-.2-.7c-.2-.5-.5-.8-.8-1l-.6-.3-1.1-.2h-1.1l-.2.1c-.2 0-.3.1-.5.2l-1.3.7-.4.3-.5.5c-.1.1-.4.4-.4.5l-.3.5-.6 1.2-.2.6-.3.6-.1.2v.7l.1 2v3.1l.1 1.2v1.7l.2 1.4zm9.8.7c0 .3.4.4.6.3.2-.1.5-.2.8-.4.2-.1.2-.1.4-.1.5-.1.5-.1.9-.2l.5-.1c.3-.1.5-.2.5-.5 0-.2-.1-.2-.2-.2-.3.1-.8.2-1-.2v-.3s.1-.2.1-.3c0-.1.1-.5.1-.5 0-.1.1-.2.1-.2l1-2.8c.1-.2.2-.2.2-.2.2-.1.3.2.4.3l1.2 2.3.2.7c0 .8-.9.6-.8 1.2 0 .2.2.3.4.3s.2-.1.3-.2l1.2-.3s.2-.1.3-.1l1.4-.2h.2l.7-.1c.2 0 .4-.5.4-.6v-.1c-.1-.1-.2-.2-.4-.2-.6-.1-.8-.2-1.1-.5-.2-.2-.4-.5-.5-.8v-.1l-1.3-2.5c-.1-.1-.1-.4-.1-.5 0-.6.3-1.2.8-2.8l.8-2.1s.2-.6.3-.7c.3-.4.5-.5 1-.6.2-.1.2-.2.3-.3 0 0 .1-.1.1-.2v-.1c-.1-.1-.2-.2-.4-.2h-.1l-.5.2-.5.2-.7.2-.4.1h-1.3c-.2 0-.4.2-.4.4 0 .1.1.2.2.2.2.2.5 0 .7.1.3.1.7.2.7.6l-.1.5-1.1 2.8c-.1.2-.2.2-.3.2h-.2l-.2-.2s-.3-.5-.4-.6l-.2-.4-.2-.2-.8-1.6v-.3c0-.5 1-.4.9-1 0-.2-.2-.3-.4-.3l-.3.1-.9.2-.2.1c-.1 0-.8.2-1 .2l-.5.1-1.1.2c-.2 0-.4.3-.4.5s.2.4.4.4c.8 0 1.2.5 1.5 1.1l.3.8.2.3c.4.6.6 1.2.9 1.8l.1.2v.2c-.1.2-.2.8-.2.8l-1.5 4.4-.3.4s-.1 0-.1.1c-.2.2-.6.3-.9.4-.3.3-.2.7-.1.9zm10.8-2.1c0 .2.2.4.4.4h.1l.4-.2 1.6-.5h.1c.7-.2 1.8-.3 2.6-.4h.1c.1 0 .4-.2.4-.3v-.1c0-.5-1-.3-1.3-.5-.2-.2-.4-.4-.5-.8v-6l.1-.7v-.5l.1-.3v-.5c.1-.2.2-.5.4-.8.3-.2.9-.3 1.2-.4h.6c.2-.1.5-.3.5-.5s-.2-.5-.5-.4c-.2.1-.5.2-.7.2l-.6.1c-.2 0-.3.1-.4.1-.4.1-.7-.2-.7-.5v-1.9l-.2-1-.2-.4-.3-1.5v-.2l.1-.5v-.1c.1-.1.2-.4.2-.5.3-.4.6-.5 1-.6.4-.1.7-.1 1 .1.1 0 .2.2.2.2l.2.5v.2c0 .2-.1.5-.2.6l-.6.8c-.2.2-.2.5-.2.7 0 .5.5 1 1.1.8 1.1-.2 1.5-1.2 1.5-2.1 0-.8-.3-1.4-.6-2-.5-.8-2.1-.5-3-.4-1.5.3-2.4 1.2-2.8 2.8l-.1.3v1.2l.4 1.8c.2.4.2 1.8 0 1.9-.2.2-.2.3-.5.4-.2 0-.2 0-.4.2-.1 0-.5.1-.5 0h-.1c-.2.1-.5.4-.5.6 0 .3.3.4.5.4.2-.1.4-.2.6-.2.4-.1.5 0 .6.4 0 .1.1.3.1.3v.5l.1.2v5c0 .3-.1 1.8-.1 2 0 .4-.3.8-.7 1.1l-.5 1zm7.2-5c0 .3 0 .6.2.9l.6 1.7c.2.6 1 .8 1.6.9.1 0 .5.1.5.1l1.2-.1 1-.4s.5-.2.6-.4c0 0 .1 0 .1-.1l.9-.8.2-.2.2-.4c.1 0 .2-.4.2-.4s.2-.3.2-.4c.2-.8.3-1.7.3-2.5 0-.2-.1-.5-.1-.8l.1-2.1v-.6c0-.2-.1-1-.1-1.1l-.5-1.5c-.1-.2-.4-.4-.5-.5-.2-.1-.6-.2-.7-.3l-.4-.1c-.4-.1-.8 0-1.2.1l-.3.1c-.3.1-1 .2-1 .2l-.2.1-1.3.7s-.2.2-.3.2l-.3.3-.2.2-.2.5c-.1.2-.2.5-.2.5l-.4 1.2s-.1.4-.1.5v.1l.1 4v.4zm12.5 1.5l1.2-.2c.2 0 .2-.2.2-.3 0-.2 0-.2-.2-.3l-.2.1h-.2c-.5 0-.8-.2-.8-.8-.1-.2-.1-.3-.1-.5v-2.5c0-.9 0-2.1.1-3v-2.2c.1-.3 0-.7.3-.9l.5-.5c.2 0 .3 0 .4.1.2.2.3.2.4.4.2.6.1 1.4.9 1.3l.2-.1.5-.2c.6-.4.8-.8.8-1.5 0-.2-.2-.5-.2-.6-.2-.5-1-.8-1.7-.7-.6.1-1.1.3-1.5.7l-.6.8c-.1 0-.1 0-.1.1h-.1l-.1-.1v-1c0-.2-.2-.2-.4-.2-.5.1-.7.5-1.2.8l-.6.5-.4.2-.2.2-.6.3c-.1.1-.1.2-.1.2 0 .2.2.2.2.2l.2-.1.5-.1s.3.1.4.2l.2.4v.1l.1 2.5v2.7l.1 1.6v.5l-.1 1.1c-.1.7-.6 1.2-.8 1.2h-.2c-.2 0-.2.2-.2.3 0 .1.1.2.2.2l.6-.1c.5-.1 1.1-.2 1.6-.4l.7-.1c0-.2.1-.3.3-.3zm13.5-2.7c.2 0 .2.1.4 0 .2 0 .4-.2.4-.5 0-.1 0-.2-.1-.2-.3-.3-.5-.2-.8-.2-.2-.1-.4-.3-.5-.5-.1-.9-.1-2.1-.1-3.1v-1l.1-2.6v-4.3l-.1-2.1v-.2l.1-3.8v-.1c0-.3-.2-.5-.5-.5-.2 0-.3.1-.4.2l-.8 1.1-1.5 1c-.2.1-.2.2-.2.4s.2.2.3.2c.5-.1 1 0 1.1.5v.4c.1.9.2 1.7.2 2.6v.5l-.2.8c-.1.2-.2.3-.3.3h-.1c-.2-.1-.5-.3-.8-.3h-1.3c-.3.1-.4.1-.6.2l-.8.5c-.5.3-.9.8-1.1 1.4l-.1.2-.4 1.8s-.1 1.3-.1 1.8v.2c0 .5.1 3.5.1 3.8l.1.4c.1.2.2.7.2.7l.5.8s.2.2.2.3c.5.4 1.1.5 1.8.5l1-.2c.6-.2 1.1-.8 1.5-1.3l.1-.1c.5-.1.2.6.6.8.2.1.5-.1.6-.1l1.2-.2.3-.1zm-73.2 11.1l.1-4.2v-.8l.2-1.3c0-.1.1-.4.2-.5.2-.5.5-1.4 1.2-1.5.7-.2 1.2.5 1.4.9 0 .1.2.3.2.3l.3 2.5v.2c0 .7-.1 1.8 0 2.5v1.4c0 1.2-.5 2.4-1.8 2.6-.2.1-.4.1-.6 0-1.1-.4-1.2-1.5-1.2-2.1zm21.5-6.2l.1-2.5-.1-3.3v-2.4c0-.2 0-1.2.1-1.3.1-.8.6-1.7 1.4-2.1.3-.2.6-.2 1-.3.2-.1.5-.1.7.1l.5.4c.4.3.5.8.6 1.4l.1 2.6v.2c0 .3-.1.7-.1 1.1l.1 2.5-.1 2.3.1 1.7v.2l-.2 2c0 .3-.2.6-.3.8l-.2.5-.6.5-.2.2c-.3.1-.5.2-.8.2-.8.2-1.1-.2-1.4-.8 0-.1-.1-.2-.1-.2l-.3-3.4v-.2h-.3v-.2zm28.1-2.3v-1c-.1-1-.2-2.1-.2-3.1v-1.2c0-.7.2-2.4.2-2.5v-1s.2-.4.2-.5c.2-.2.5-.4.7-.5.2-.1.3-.1.4-.2.3-.1.9-.1 1 .2l.4.8.2 2.4.1 4.3v1.5s-.2.5-.2.8c-.2.4-.8 1.1-1.3 1.2-1 .1-1.5-.6-1.5-1.2zm17.4-4.5l.1-4.2v-.9l.2-1.3c0-.1.1-.4.2-.5.2-.5.5-1.4 1.2-1.5.7-.2 1.2.5 1.4.9 0 .1.2.3.2.3l.3 2.5v.2c0 .7-.1 1.8 0 2.5v1.4c0 1.2-.5 2.4-1.8 2.6-.2.1-.4.1-.6 0-1-.2-1.2-1.5-1.2-2z"/></svg>